<svg width="18" height="19" viewBox="0 0 18 19" fill="none" xmlns="http://www.w3.org/2000/svg">
<path d="M17.4167 9.5C17.4167 10.3249 17.2948 11.119 17.0802 11.875H15.4169C15.6821 11.1308 15.8333 10.3336 15.8333 9.5C15.8333 5.57175 12.6374 2.375 8.70833 2.375C7.35775 2.375 6.099 2.75817 5.02312 3.41525L6.49404 5.54167H0.957125L2.66079 0L4.12458 2.11613C5.45775 1.28567 7.02129 0.791667 8.70833 0.791667C13.5169 0.791667 17.4167 4.69063 17.4167 9.5ZM12.3864 15.5895C11.3121 16.2434 10.0557 16.625 8.70833 16.625C4.78008 16.625 1.58333 13.4283 1.58333 9.5C1.58333 8.66638 1.73454 7.86917 1.99896 7.125H0.336458C0.121917 7.88104 0 8.67508 0 9.5C0 14.3094 3.89896 18.2083 8.70833 18.2083C10.3922 18.2083 11.9534 17.7167 13.2842 16.8886L14.7511 19L16.4548 13.467H10.9179L12.3864 15.5895Z" fill="black"/>
</svg>
