<svg width="52" height="49" viewBox="0 0 52 49" fill="none" xmlns="http://www.w3.org/2000/svg">
<path d="M24.0409 1.09089C24.3659 0.422948 25.0467 0 25.7895 0C26.5348 0 27.2131 0.422948 27.538 1.09089C30.0499 6.24363 34.3722 15.1204 34.3722 15.1204C34.3722 15.1204 44.2006 16.4717 49.9026 17.2583C50.942 17.4002 51.5789 18.2796 51.5789 19.1848C51.5789 19.6748 51.3933 20.1725 50.9832 20.5671C46.8311 24.5335 39.6823 31.3755 39.6823 31.3755C39.6823 31.3755 41.4282 41.0904 42.4392 46.7254C42.6532 47.9168 41.73 49 40.5256 49C40.211 49 39.8963 48.9252 39.6101 48.7705C34.5347 46.0677 25.7895 41.4179 25.7895 41.4179C25.7895 41.4179 17.0443 46.0677 11.9689 48.7705C11.6826 48.9252 11.3654 49 11.0508 49C9.85158 49 8.92316 47.9143 9.13979 46.7254C10.1533 41.0904 11.8993 31.3755 11.8993 31.3755C11.8993 31.3755 4.74784 24.5335 0.598316 20.5671C0.185685 20.1725 0 19.6748 0 19.1874C0 18.2796 0.642158 17.3976 1.67889 17.2583C7.38095 16.4717 17.2067 15.1204 17.2067 15.1204C17.2067 15.1204 21.5316 6.24363 24.0409 1.09089ZM25.7895 6.33389L19.7006 18.6922L6.17142 20.5465L16.0952 29.9416L13.6504 43.4939L25.7895 37.0337L37.9286 43.4939L35.476 29.9906L45.4075 20.5465L31.703 18.5968L25.7895 6.33389Z" fill="url(#paint0_linear_552_546)"/>
<defs>
<linearGradient id="paint0_linear_552_546" x1="0" y1="0" x2="0" y2="49" gradientUnits="userSpaceOnUse">
<stop stop-color="#FFD740"/>
<stop offset="1" stop-color="#FFAB00"/>
</linearGradient>
</defs>
</svg>
