<svg width="197" height="44" viewBox="0 0 197 44" fill="none" xmlns="http://www.w3.org/2000/svg">
<g filter="url(#filter0_d_401_16)">
<path d="M60.0378 33.6078C60.1495 34.0561 59.9906 34.2802 59.562 34.2802H55.474C55.1382 34.2802 54.914 34.1308 54.8016 33.8319L50.1811 12.9696C50.0875 12.7643 50.0828 12.6015 50.167 12.4796C50.2511 12.3585 50.4053 12.2979 50.6286 12.2979H55.3049C55.6596 12.2979 55.8932 12.4474 56.0048 12.7462L60.0378 33.6078ZM64.1541 12.4379C64.5088 12.4379 64.7235 12.5874 64.7982 12.8862L67.3747 23.7794L69.5311 12.7462C69.6428 12.4482 69.8764 12.2979 70.2311 12.2979H74.9074C75.1315 12.2979 75.2856 12.3585 75.369 12.4796C75.4532 12.6015 75.4484 12.7643 75.3549 12.9696L70.7344 33.8319C70.6227 34.1308 70.3986 34.2802 70.062 34.2802H65.6657C65.4596 34.2802 65.311 34.2197 65.2174 34.0986C65.1238 33.9767 65.0585 33.8139 65.0216 33.6086L62.781 22.5478L61.1569 31.0329C61.0822 31.2948 60.9564 31.4254 60.7786 31.4254C60.6009 31.4254 60.4751 31.2948 60.4004 31.0329L58.7205 22.3803C58.6269 22.0823 58.6175 21.8204 58.6922 21.5962L60.7362 12.887C60.8109 12.5889 61.0256 12.4387 61.3803 12.4387H64.1541V12.4379Z" fill="url(#paint0_linear_401_16)"/>
<path d="M82.72 34.2802H77.9596C77.586 34.2802 77.3996 34.0843 77.3996 33.6919V12.8295C77.3996 12.4748 77.586 12.2971 77.9596 12.2971H82.6925C83.0841 12.2971 83.2807 12.4748 83.2807 12.8295V33.6919C83.2799 34.0843 83.0935 34.2802 82.72 34.2802Z" fill="url(#paint1_linear_401_16)"/>
<path d="M86.1647 12.9695C86.0712 12.7642 86.0664 12.6014 86.1506 12.4795C86.2347 12.3584 86.3889 12.2979 86.6122 12.2979H91.6526C91.9885 12.2979 92.222 12.4473 92.3526 12.7462L97.8688 24.0594V12.8295C97.8688 12.4748 98.0552 12.2971 98.4288 12.2971H102.881C103.273 12.2971 103.469 12.4748 103.469 12.8295V33.8877C103.469 33.9624 103.45 34.0183 103.413 34.056C103.339 34.2243 103.18 34.3085 102.938 34.3085H98.1771C97.8413 34.3085 97.6077 34.159 97.4771 33.861L86.1647 12.9695ZM86.1089 16.1342C86.1089 15.9289 86.2111 15.8078 86.4172 15.7701C86.6225 15.7331 86.7719 15.8165 86.8655 16.0225L91.4576 24.5076C91.5512 24.6948 91.6157 24.867 91.6534 25.0259C91.6904 25.1848 91.7093 25.3578 91.7093 25.5442V33.7493C91.7093 34.104 91.5221 34.2809 91.1493 34.2809H86.6972C86.3047 34.2809 86.1089 34.1032 86.1089 33.7493V16.1342Z" fill="url(#paint2_linear_401_16)"/>
<path d="M106.271 17.17C105.878 17.17 105.682 16.9836 105.682 16.61V12.8578C105.682 12.4843 105.878 12.2979 106.271 12.2979H119.264C119.638 12.2979 119.824 12.485 119.824 12.8578V16.5825C119.824 16.9741 119.638 17.1708 119.264 17.1708H106.271V17.17ZM106.859 34.2802C106.466 34.2802 106.271 34.093 106.271 33.7202V18.5699C106.271 18.1963 106.457 18.0099 106.83 18.0099H111.563C111.956 18.0099 112.152 18.1971 112.152 18.5699V20.978H118.2C118.555 20.978 118.732 21.1652 118.732 21.538V24.8143C118.732 25.206 118.554 25.4026 118.2 25.4026H112.152V29.4073H119.461C119.816 29.4073 119.993 29.5944 119.993 29.9672V33.6919C119.993 34.0843 119.815 34.2802 119.461 34.2802H106.859Z" fill="url(#paint3_linear_401_16)"/>
<path d="M122.597 12.9695C122.503 12.7642 122.499 12.6014 122.582 12.4795C122.667 12.3584 122.821 12.2979 123.045 12.2979H128.085C128.421 12.2979 128.655 12.4473 128.785 12.7462L134.301 24.0594V12.8295C134.301 12.4748 134.488 12.2971 134.861 12.2971H139.314C139.707 12.2971 139.903 12.4748 139.903 12.8295V33.8877C139.903 33.9624 139.884 34.0183 139.847 34.056C139.772 34.2243 139.613 34.3085 139.371 34.3085H134.61C134.275 34.3085 134.04 34.159 133.911 33.861L122.597 12.9695ZM122.54 16.1342C122.54 15.9289 122.642 15.8078 122.847 15.7701C123.053 15.7331 123.202 15.8165 123.296 16.0225L127.888 24.5076C127.981 24.6948 128.047 24.867 128.084 25.0259C128.121 25.1848 128.14 25.3578 128.14 25.5442V33.7493C128.14 34.104 127.953 34.2809 127.58 34.2809H123.127C122.735 34.2809 122.539 34.1032 122.539 33.7493V16.1342H122.54Z" fill="url(#paint4_linear_401_16)"/>
<path d="M151.803 33.6077C151.915 34.056 151.756 34.2802 151.327 34.2802H147.239C146.903 34.2802 146.679 34.1307 146.566 33.8319L141.946 12.9695C141.852 12.7642 141.848 12.6014 141.932 12.4795C142.015 12.3584 142.17 12.2979 142.393 12.2979H147.07C147.425 12.2979 147.659 12.4473 147.77 12.7461L151.803 33.6077ZM155.92 12.4379C156.274 12.4379 156.489 12.5873 156.564 12.8861L159.14 23.7794L161.297 12.7461C161.408 12.4481 161.642 12.2979 161.997 12.2979H166.673C166.897 12.2979 167.051 12.3584 167.134 12.4795C167.219 12.6014 167.214 12.7642 167.12 12.9695L162.5 33.8319C162.388 34.1307 162.164 34.2802 161.828 34.2802H157.432C157.227 34.2802 157.077 34.2196 156.984 34.0985C156.89 33.9766 156.825 33.8138 156.788 33.6085L154.547 22.5478L152.923 31.0329C152.848 31.2948 152.723 31.4253 152.545 31.4253C152.367 31.4253 152.241 31.2948 152.167 31.0329L150.487 22.3803C150.393 22.0822 150.384 21.8203 150.458 21.5962L152.502 12.8869C152.577 12.5889 152.792 12.4386 153.147 12.4386H155.92V12.4379Z" fill="url(#paint5_linear_401_16)"/>
<path d="M174.486 34.2802H169.726C169.352 34.2802 169.166 34.0843 169.166 33.6919V12.8295C169.166 12.4748 169.352 12.2971 169.726 12.2971H174.458C174.85 12.2971 175.046 12.4748 175.046 12.8295V33.6919C175.046 34.0843 174.859 34.2802 174.486 34.2802Z" fill="url(#paint6_linear_401_16)"/>
<path d="M177.93 12.9695C177.837 12.7642 177.832 12.6014 177.916 12.4795C177.999 12.3584 178.154 12.2979 178.378 12.2979H183.418C183.754 12.2979 183.987 12.4473 184.118 12.7462L189.635 24.0594V12.8295C189.635 12.4748 189.821 12.2971 190.195 12.2971H194.647C195.039 12.2971 195.235 12.4748 195.235 12.8295V33.8877C195.235 33.9624 195.217 34.0183 195.18 34.056C195.105 34.2243 194.946 34.3085 194.704 34.3085H189.943C189.608 34.3085 189.374 34.159 189.243 33.861L177.93 12.9695ZM177.874 16.1342C177.874 15.9289 177.977 15.8078 178.183 15.7701C178.388 15.7331 178.537 15.8165 178.631 16.0225L183.223 24.5076C183.316 24.6948 183.381 24.867 183.419 25.0259C183.457 25.1848 183.475 25.3578 183.475 25.5442V33.7493C183.475 34.104 183.288 34.2809 182.915 34.2809H178.463C178.07 34.2809 177.874 34.1032 177.874 33.7493V16.1342Z" fill="url(#paint7_linear_401_16)"/>
<path d="M22.8446 27.5009L18.6064 38.5427H16.9171L8.50436 13.8605C8.31325 13.3006 8.14259 12.8287 7.99473 12.4465C7.84609 12.0643 7.65498 11.7591 7.4214 11.5295C7.18704 11.2998 6.88976 11.1347 6.52878 11.0324C6.167 10.931 5.68884 10.8799 5.09506 10.8799V9.0073C5.54098 9.05842 6.16779 9.08987 6.97548 9.10246C7.78239 9.11583 8.62154 9.12134 9.49293 9.12134C10.3635 9.12134 11.198 9.10875 11.9947 9.0828C12.7913 9.05763 13.3914 9.03247 13.7949 9.00651V10.8791C13.264 10.8791 12.844 10.905 12.5357 10.9554C12.2274 11.0065 12.0206 11.1276 11.9144 11.3187C11.8075 11.5098 11.787 11.7835 11.8507 12.1405C11.9144 12.4976 12.0418 12.9687 12.233 13.5538L18.4153 32.3517L21.602 24.0224L18.0645 13.9352C17.8734 13.3753 17.687 12.8979 17.5069 12.5023C17.3261 12.1075 17.1137 11.7898 16.8691 11.5468C16.6245 11.3053 16.3217 11.1331 15.9608 11.0309C15.599 10.9294 15.1428 10.8783 14.5908 10.8783V9.00572C15.0579 9.05684 15.6902 9.0883 16.4869 9.10089C17.2836 9.11426 18.1015 9.11976 18.9407 9.11976C19.7798 9.11976 20.5663 9.11347 21.2992 9.10089C22.0322 9.0883 22.5898 9.05684 22.972 9.00572V10.8783C22.4829 10.8783 22.1061 10.9042 21.8411 10.9546C21.5753 11.0057 21.3999 11.1268 21.315 11.3179C21.23 11.509 21.2245 11.7898 21.2992 12.1586C21.3732 12.5283 21.5273 13.0316 21.7617 13.6678L23.5147 18.864L25.4588 13.859C25.6924 13.2227 25.852 12.7123 25.937 12.3309C26.0219 11.9487 26.0109 11.6498 25.9047 11.4327C25.7978 11.2165 25.5752 11.0694 25.2355 10.9931C24.8957 10.9168 24.4278 10.8783 23.8332 10.8783V9.00572C24.2367 9.05684 24.7675 9.0883 25.4266 9.10089C26.0848 9.11426 26.7651 9.11976 27.4659 9.11976C28.1666 9.11976 28.8304 9.10718 29.458 9.08123C30.084 9.05606 30.5574 9.03089 30.8759 9.00494V10.8775C30.4505 10.8775 30.084 10.9672 29.7765 11.1449C29.4682 11.3234 29.2031 11.5594 28.9798 11.8519C28.7564 12.1453 28.5653 12.4827 28.4065 12.8641C28.2468 13.2463 28.0927 13.6411 27.944 14.0485L24.7251 22.4542L27.944 31.8531L33.4248 14.1248C33.6372 13.3863 33.7858 12.8004 33.8708 12.367C33.9557 11.9345 33.9447 11.6097 33.8385 11.3926C33.7324 11.1764 33.509 11.0364 33.1692 10.9727C32.8295 10.909 32.3616 10.8775 31.767 10.8775V9.00494C32.1704 9.05606 32.6856 9.08752 33.3124 9.1001C33.9384 9.11347 34.5817 9.11897 35.24 9.11897C35.8983 9.11897 36.5196 9.10639 37.1039 9.08044C37.6882 9.05527 38.1287 9.0301 38.4267 9.00415V10.8767C38.0233 10.8767 37.7095 10.909 37.4869 10.9719C37.2635 11.0356 37.0724 11.1889 36.9136 11.4304C36.7539 11.6726 36.5998 12.0226 36.4511 12.4811C36.3025 12.9396 36.1216 13.564 35.9093 14.3536L28.4206 38.5388H26.7635L22.8446 27.5009Z" fill="url(#paint8_linear_401_16)"/>
<path d="M22.0055 7.89386e-07C10.4068 -0.00314504 1.00236 9.3966 1 20.9945C0.996855 32.5924 10.3966 41.9969 21.9953 42C33.5932 42.0031 42.9976 32.6034 43.0008 21.0047C43.0039 9.40604 33.6034 0.00236016 22.0055 7.89386e-07ZM21.9953 38.6072C12.2062 38.6049 4.27245 30.6671 4.27481 20.8781C4.27717 11.0891 12.2149 3.15527 22.0039 3.15763C31.793 3.15999 39.7268 11.0985 39.7244 20.8875C39.722 30.6766 31.7843 38.6096 21.9953 38.6072Z" fill="url(#paint9_linear_401_16)"/>
</g>
<defs>
<filter id="filter0_d_401_16" x="0" y="0" width="196.235" height="44" filterUnits="userSpaceOnUse" color-interpolation-filters="sRGB">
<feFlood flood-opacity="0" result="BackgroundImageFix"/>
<feColorMatrix in="SourceAlpha" type="matrix" values="0 0 0 0 0 0 0 0 0 0 0 0 0 0 0 0 0 0 127 0" result="hardAlpha"/>
<feOffset dy="1"/>
<feGaussianBlur stdDeviation="0.5"/>
<feComposite in2="hardAlpha" operator="out"/>
<feColorMatrix type="matrix" values="0 0 0 0 1 0 0 0 0 0.435294 0 0 0 0 0 0 0 0 0.1 0"/>
<feBlend mode="normal" in2="BackgroundImageFix" result="effect1_dropShadow_401_16"/>
<feBlend mode="normal" in="SourceGraphic" in2="effect1_dropShadow_401_16" result="shape"/>
</filter>
<linearGradient id="paint0_linear_401_16" x1="50.2897" y1="26.5864" x2="75.2938" y2="26.5864" gradientUnits="userSpaceOnUse">
<stop offset="0.276042" stop-color="#FFD740"/>
<stop offset="1" stop-color="#FFAB00"/>
</linearGradient>
<linearGradient id="paint1_linear_401_16" x1="77.442" y1="26.5861" x2="83.2494" y2="26.5861" gradientUnits="userSpaceOnUse">
<stop offset="0.276042" stop-color="#FFD740"/>
<stop offset="1" stop-color="#FFAB00"/>
</linearGradient>
<linearGradient id="paint2_linear_401_16" x1="86.2161" y1="26.6045" x2="103.377" y2="26.6045" gradientUnits="userSpaceOnUse">
<stop offset="0.276042" stop-color="#FFD740"/>
<stop offset="1" stop-color="#FFAB00"/>
</linearGradient>
<linearGradient id="paint3_linear_401_16" x1="105.785" y1="26.5863" x2="119.916" y2="26.5863" gradientUnits="userSpaceOnUse">
<stop offset="0.276042" stop-color="#FFD740"/>
<stop offset="1" stop-color="#FFAB00"/>
</linearGradient>
<linearGradient id="paint4_linear_401_16" x1="122.648" y1="26.6045" x2="139.81" y2="26.6045" gradientUnits="userSpaceOnUse">
<stop offset="0.276042" stop-color="#FFD740"/>
<stop offset="1" stop-color="#FFAB00"/>
</linearGradient>
<linearGradient id="paint5_linear_401_16" x1="142.054" y1="26.5863" x2="167.059" y2="26.5863" gradientUnits="userSpaceOnUse">
<stop offset="0.276042" stop-color="#FFD740"/>
<stop offset="1" stop-color="#FFAB00"/>
</linearGradient>
<linearGradient id="paint6_linear_401_16" x1="169.208" y1="26.5861" x2="175.015" y2="26.5861" gradientUnits="userSpaceOnUse">
<stop offset="0.276042" stop-color="#FFD740"/>
<stop offset="1" stop-color="#FFAB00"/>
</linearGradient>
<linearGradient id="paint7_linear_401_16" x1="177.982" y1="26.6045" x2="195.143" y2="26.6045" gradientUnits="userSpaceOnUse">
<stop offset="0.276042" stop-color="#FFD740"/>
<stop offset="1" stop-color="#FFAB00"/>
</linearGradient>
<linearGradient id="paint8_linear_401_16" x1="5.33531" y1="28.2042" x2="38.249" y2="28.2042" gradientUnits="userSpaceOnUse">
<stop offset="0.276042" stop-color="#FFD740"/>
<stop offset="1" stop-color="#FFAB00"/>
</linearGradient>
<linearGradient id="paint9_linear_401_16" x1="1.30273" y1="27.3" x2="42.7769" y2="27.3" gradientUnits="userSpaceOnUse">
<stop offset="0.276042" stop-color="#FFD740"/>
<stop offset="1" stop-color="#FFAB00"/>
</linearGradient>
</defs>
</svg>
